<?xml version="1.0" encoding="UTF-8"?>
<svg version="1.1" xmlns="http://www.w3.org/2000/svg" width="404" height="68">
<path d="M0 0 C-0.33 1.32 -0.66 2.64 -1 4 C-1.99 4 -2.98 4 -4 4 C-3.89300781 4.58007812 -3.78601563 5.16015625 -3.67578125 5.7578125 C-2.85549016 11.1029351 -2.81940432 14.34269918 -6 19 C-9.14573677 21.09715785 -11.01456251 21.52004559 -14.6875 22.125 C-15.68136719 22.29257812 -16.67523438 22.46015625 -17.69921875 22.6328125 C-18.45847656 22.75398438 -19.21773437 22.87515625 -20 23 C-19.27554688 23.03738281 -18.55109375 23.07476562 -17.8046875 23.11328125 C-7.43111883 23.81868392 -7.43111883 23.81868392 -3 27 C-0.4684782 30.74224962 -0.78660951 34.52606921 -1.390625 38.84765625 C-2.53785071 42.89971629 -5.33459877 44.97763872 -8.80078125 47.10546875 C-13.6770669 49.08889577 -20.1244469 48.99808128 -25.08203125 47.27734375 C-27.58212376 45.77485507 -28.87724604 44.27439121 -30.0625 41.625 C-29.95776511 37.22613465 -28.06544186 34.06544186 -25 31 C-25.515625 30.443125 -26.03125 29.88625 -26.5625 29.3125 C-28 27 -28 27 -27.875 24.4375 C-26.95952916 21.8872598 -26.06699293 20.7075159 -24 19 C-24.495 18.360625 -24.99 17.72125 -25.5 17.0625 C-27.51533004 12.94786783 -27.86272165 9.50356529 -27 5 C-21.25068511 -5.5954807 -9.76439958 -1.79575165 0 0 Z M-18 1 C-20.15164703 4.22747055 -20.27245079 5.20505639 -20.25 8.9375 C-20.25515625 9.79214844 -20.2603125 10.64679687 -20.265625 11.52734375 C-19.98334458 14.15504239 -19.41035228 15.77732468 -18 18 C-16.11149645 19.07642709 -16.11149645 19.07642709 -14 19 C-12.1488697 18.07006533 -12.1488697 18.07006533 -11 16 C-9.77971627 11.0249971 -9.92863204 7.68783276 -12 3 C-12.66 2.34 -13.32 1.68 -14 1 C-15.32 1 -16.64 1 -18 1 Z M-22 34 C-23.00478037 35.8522367 -23.00478037 35.8522367 -23 38 C-21.85213059 40.24356294 -20.7904233 42.2095767 -19 44 C-14.70050447 44.53198626 -11.14779222 44.68320966 -7.375 42.4375 C-5.4005463 38.93733207 -5.94510254 36.79763087 -7 33 C-10.09780948 30.93479368 -10.9540481 30.70522976 -14.5 30.6875 C-15.2734375 30.67074219 -16.046875 30.65398438 -16.84375 30.63671875 C-19.50522472 31.08511938 -20.34050606 31.91799686 -22 34 Z " fill="#FBF8EF" transform="translate(94,19)"/>
<path d="M0 0 C1.051875 0.2475 1.051875 0.2475 2.125 0.5 C5.08537582 1.18657884 5.08537582 1.18657884 8.375 0.375 C12.91899804 -0.09506876 15.05613833 0.73593126 19 3 C22.83339178 6.5369955 24.62920338 9.87558255 25.23828125 15.0078125 C25.45898336 21.3036306 24.14128897 26.51505343 21 32 C18.10941673 34.96108531 16.28486321 35.89721094 12.16796875 36.2265625 C9.43092423 36.24764372 6.73090471 36.1749334 4 36 C4 39.3 4 42.6 4 46 C4.66 46.33 5.32 46.66 6 47 C6 47.99 6 48.98 6 50 C1.38 50 -3.24 50 -8 50 C-8 49.01 -8 48.02 -8 47 C-7.01 46.34 -6.02 45.68 -5 45 C-4.69582772 42.25747556 -4.57994202 39.74447373 -4.6015625 37 C-4.59869232 36.20851562 -4.59582214 35.41703125 -4.59286499 34.6015625 C-4.59082223 32.92707606 -4.59636693 31.25256588 -4.60888672 29.578125 C-4.62493828 27.00987571 -4.60904617 24.44320014 -4.58984375 21.875 C-4.59182615 20.24999651 -4.59566975 18.62499401 -4.6015625 17 C-4.59548981 16.22914062 -4.58941711 15.45828125 -4.5831604 14.6640625 C-4.5798252 12.27165174 -4.5798252 12.27165174 -5 9 C-5.99 8.34 -6.98 7.68 -8 7 C-7 4 -7 4 -4 2.375 C-3.01 1.92125 -2.02 1.4675 -1 1 C-0.67 0.67 -0.34 0.34 0 0 Z M3 7 C2.30882868 10.77050029 2.49075193 14.61110913 2.5 18.4375 C2.47164062 19.50033203 2.44328125 20.56316406 2.4140625 21.65820312 C2.40679862 24.52925316 2.46615724 27.17859162 3 30 C5.89332722 32.75301537 7.16428397 33 11.125 33 C14.1054978 32.25171458 14.1054978 32.25171458 15.65625 29.90625 C17.34098921 26.26251171 17.39902545 23.50424175 17.375 19.5 C17.38660156 17.56640625 17.38660156 17.56640625 17.3984375 15.59375 C16.87349551 10.85897915 15.32127825 8.32127825 12 5 C7.94738713 4.65509678 6.45245824 4.69836118 3 7 Z " fill="#FBF8EF" transform="translate(152,17)"/>
<path d="M0 0 C0.33 6.6 0.66 13.2 1 20 C1.66 19.34 2.32 18.68 3 18 C7.03900451 16.99024887 9.36328649 16.77174421 13.3125 18.1875 C16.17525859 20.11819765 16.80628179 20.86627575 18 24 C18.27124023 26.62548828 18.27124023 26.62548828 18.30859375 29.5703125 C18.33373047 30.63121094 18.35886719 31.69210938 18.38476562 32.78515625 C18.42004428 35.01947127 18.45126651 37.25385388 18.47851562 39.48828125 C18.50494141 40.54660156 18.53136719 41.60492188 18.55859375 42.6953125 C18.57204834 43.66484863 18.58550293 44.63438477 18.59936523 45.63330078 C18.73157471 46.41431152 18.86378418 47.19532227 19 48 C19.99 48.66 20.98 49.32 22 50 C22 50.66 22 51.32 22 52 C17.05 52 12.1 52 7 52 C7.33 51.01 7.66 50.02 8 49 C8.99 48.505 8.99 48.505 10 48 C10.02893932 44.37501666 10.04677792 40.75006287 10.0625 37.125 C10.07087891 36.09246094 10.07925781 35.05992188 10.08789062 33.99609375 C10.09111328 33.00996094 10.09433594 32.02382813 10.09765625 31.0078125 C10.10289307 30.09660645 10.10812988 29.18540039 10.11352539 28.24658203 C10.14885565 25.96312491 10.14885565 25.96312491 9 24 C6.08347826 23.83318891 6.08347826 23.83318891 3 24 C0.00628497 26.99371503 0.70743652 29.80494229 0.67773438 33.8984375 C0.68095703 34.92195313 0.68417969 35.94546875 0.6875 37 C0.67138672 38.02351563 0.65527344 39.04703125 0.63867188 40.1015625 C0.63802734 41.07867187 0.63738281 42.05578125 0.63671875 43.0625 C0.63373779 43.96097656 0.63075684 44.85945313 0.62768555 45.78515625 C0.75054932 46.51605469 0.87341309 47.24695312 1 48 C1.99 48.66 2.98 49.32 4 50 C4 50.66 4 51.32 4 52 C-0.95 52 -5.9 52 -11 52 C-10.67 51.01 -10.34 50.02 -10 49 C-9.01 48.505 -9.01 48.505 -8 48 C-7.95065344 42.19760386 -7.91430598 36.39532919 -7.89013672 30.59277344 C-7.88006373 28.61781691 -7.86640479 26.64287534 -7.84912109 24.66796875 C-7.82492961 21.83329582 -7.81353009 18.99881962 -7.8046875 16.1640625 C-7.79436493 15.27756012 -7.78404236 14.39105774 -7.77340698 13.47769165 C-7.7730093 11.31714048 -7.87727466 9.15706282 -8 7 C-8.66 6.34 -9.32 5.68 -10 5 C-10 4.01 -10 3.02 -10 2 C-6.38026598 0.68373308 -3.90432869 0 0 0 Z " fill="#FBF7EF" transform="translate(188,0)"/>
<path d="M0 0 C0.01458252 1.31718018 0.02916504 2.63436035 0.04418945 3.99145508 C0.10210713 8.87259238 0.17934036 13.75326518 0.26245117 18.6340332 C0.29573128 20.74756336 0.32375353 22.86118306 0.34643555 24.97485352 C0.37992472 28.01096806 0.43223764 31.04625975 0.48828125 34.08203125 C0.49467117 35.02899368 0.5010611 35.97595612 0.50764465 36.95161438 C0.53733589 38.27264412 0.53733589 38.27264412 0.56762695 39.62036133 C0.57873001 40.39535477 0.58983307 41.17034821 0.60127258 41.96882629 C1.09789034 44.49866718 2.1769882 45.25026144 4 47 C4 47.99 4 48.98 4 50 C-2.625 53 -2.625 53 -6 53 C-6.33 52.34 -6.66 51.68 -7 51 C-7.99 51.66 -8.98 52.32 -10 53 C-14.11818669 53.59382093 -17.89344177 53.39344293 -21.8125 52 C-25.94069963 48.22564605 -27.70029048 44.42794988 -28.38671875 38.8671875 C-28.61217139 32.1658021 -28.25433122 26.40828381 -24 21 C-20.3169305 17.91418501 -16.75426519 17.25022448 -12 17 C-8.5625 17.9375 -8.5625 17.9375 -6 19 C-6.0868748 17.04082341 -6.19504512 15.08258129 -6.3125 13.125 C-6.37050781 12.03445313 -6.42851562 10.94390625 -6.48828125 9.8203125 C-6.65714844 8.88960937 -6.82601563 7.95890625 -7 7 C-7.99 6.34 -8.98 5.68 -10 5 C-9.67 4.01 -9.34 3.02 -9 2 C-5.82757352 0.68964993 -3.44118336 0 0 0 Z M-18.375 22.6875 C-21.77322854 27.52344062 -21.50923866 33.28423505 -21 39 C-19.99588539 42.56656293 -18.65229891 45.34770109 -16 48 C-13.0850745 48.5838196 -13.0850745 48.5838196 -10 48 C-6.90158543 45.10256367 -6.05605541 43.43078804 -5.50390625 39.1875 C-5.5025893 37.79153065 -5.52259466 36.39539949 -5.5625 35 C-5.55541016 34.30132812 -5.54832031 33.60265625 -5.54101562 32.8828125 C-5.595333 28.45385706 -6.17736184 25.45642497 -9 22 C-12.97129171 20.77250983 -14.90763539 20.2238462 -18.375 22.6875 Z " fill="#FBF8EF" transform="translate(356,0)"/>
<path d="M0 0 C3.3 0 6.6 0 10 0 C10.97521532 2.92564596 11.09284238 4.67685281 11.02734375 7.7109375 C11.01509766 8.62617188 11.00285156 9.54140625 10.99023438 10.484375 C10.95521923 12.40372394 10.91618928 14.32300404 10.87304688 16.2421875 C10.75987898 22.84549576 10.75987898 22.84549576 13 29 C16.465 28.505 16.465 28.505 20 28 C20 20.08 20 12.16 20 4 C19.34 3.67 18.68 3.34 18 3 C18 2.01 18 1.02 18 0 C21.3 0 24.6 0 28 0 C29.04510599 3.13531797 29.07389054 5.19181941 28.9921875 8.47265625 C28.97542969 9.53677734 28.95867187 10.60089844 28.94140625 11.69726562 C28.89705506 13.94482734 28.84494306 16.19224903 28.78515625 18.43945312 C28.76388672 20.03370117 28.76388672 20.03370117 28.7421875 21.66015625 C28.7201123 22.63605713 28.69803711 23.61195801 28.67529297 24.61743164 C28.78244629 25.4036792 28.88959961 26.18992676 29 27 C29.99 27.66 30.98 28.32 32 29 C32 29.99 32 30.98 32 32 C25.375 35 25.375 35 22 35 C21.67 34.01 21.34 33.02 21 32 C20.505 32.495 20.01 32.99 19.5 33.5 C16.04749905 35.57150057 12.87277805 35.82988101 9 35 C5.47306696 32.29851937 3.78390486 30.31857642 3 26 C2.8562677 24.2683761 2.75425068 22.53301667 2.68359375 20.796875 C2.64169922 19.8171875 2.59980469 18.8375 2.55664062 17.828125 C2.51732422 16.81234375 2.47800781 15.7965625 2.4375 14.75 C2.37272461 13.203125 2.37272461 13.203125 2.30664062 11.625 C2.20074318 9.0834613 2.09866557 6.54182804 2 4 C1.34 3.67 0.68 3.34 0 3 C0 2.01 0 1.02 0 0 Z " fill="#FAF7EF" transform="translate(295,18)"/>
<path d="M0 0 C5.28 0 10.56 0 16 0 C16 0.99 16 1.98 16 3 C15.01 3.495 15.01 3.495 14 4 C14.60108576 9.65020618 16.07528683 14.66164461 18 20 C20.63595772 17.36404228 21.07702112 14.93812819 22.125 11.375 C22.47820312 10.18648437 22.83140625 8.99796875 23.1953125 7.7734375 C23.46085937 6.85820312 23.72640625 5.94296875 24 5 C23.01 4.34 22.02 3.68 21 3 C21 2.01 21 1.02 21 0 C24.96 0 28.92 0 33 0 C33 0.99 33 1.98 33 3 C32.37053467 3.07613525 31.74106934 3.15227051 31.0925293 3.23071289 C28.83801371 3.78392123 28.83801371 3.78392123 28.10473633 5.86108398 C27.91161865 6.66876221 27.71850098 7.47644043 27.51953125 8.30859375 C25.9209036 14.37001201 23.85960981 20.18480799 21.6875 26.0625 C21.32205078 27.08666016 20.95660156 28.11082031 20.58007812 29.16601562 C14.91809115 44.4700046 14.91809115 44.4700046 9.0456543 48.26196289 C5.87777996 49.40487781 3.23323575 48.67104893 0 48 C-1 47 -1 47 -1.0625 44.4375 C-1.041875 43.633125 -1.02125 42.82875 -1 42 C2.98196457 40.94595055 5.98195309 41.15901344 10 42 C12.58849912 38.7902611 13.00799472 37.20346555 12.84375 33.0234375 C12.08340181 27.23011275 10.03526899 21.98626542 7.9375 16.5625 C7.19397924 14.60646846 6.45296014 12.64948355 5.71484375 10.69140625 C5.38605225 9.83748291 5.05726074 8.98355957 4.71850586 8.10375977 C4 6 4 6 4 4 C2.68 3.67 1.36 3.34 0 3 C0 2.01 0 1.02 0 0 Z " fill="#FBF8EF" transform="translate(206,18)"/>
<path d="M0 0 C2.05123142 3.18786032 2.29459763 5.89739247 2.4140625 9.640625 C2.45273438 10.71054687 2.49140625 11.78046875 2.53125 12.8828125 C2.5621875 13.99398437 2.593125 15.10515625 2.625 16.25 C2.66367188 17.37664063 2.70234375 18.50328125 2.7421875 19.6640625 C2.83637336 22.44254548 2.92199586 25.22102334 3 28 C4.32 28.33 5.64 28.66 7 29 C6.01 30.65 5.02 32.3 4 34 C-2.75 33.25 -2.75 33.25 -5 31 C-5.66 31.495 -6.32 31.99 -7 32.5 C-11.10124986 34.55062493 -13.43807799 34.51505571 -18 34 C-20.0625 32.4375 -20.0625 32.4375 -21 30 C-21 25.80221796 -20.5045434 23.65743534 -17.9375 20.3125 C-14.32650374 17.46980082 -9.77933589 14 -5 14 C-5.33 10.37 -5.66 6.74 -6 3 C-7.65 3 -9.3 3 -11 3 C-11.4125 4.134375 -11.825 5.26875 -12.25 6.4375 C-14 10 -14 10 -16.125 11 C-16.74375 11 -17.3625 11 -18 11 C-19 10 -19 10 -19.3125 7.1875 C-19 4 -19 4 -17.375 1.75 C-11.84624911 -2.32381644 -6.26423 -2.8815458 0 0 Z M-12 21 C-13.41577477 22.18424326 -13.41577477 22.18424326 -13.0625 25.5625 C-13.041875 26.696875 -13.02125 27.83125 -13 29 C-9.43434764 29.33367963 -9.43434764 29.33367963 -6.34375 27.78125 C-4.60782909 25.48014554 -4.68868806 24.16017456 -4.8125 21.3125 C-4.83957031 20.50425781 -4.86664063 19.69601563 -4.89453125 18.86328125 C-4.92933594 18.24839844 -4.96414062 17.63351563 -5 17 C-7.39517287 17 -10.1036761 19.69627732 -12 21 Z " fill="#FBF8EF" transform="translate(138,19)"/>
<path d="M0 0 C3.75504657 2.95610049 5.51971949 5.51371127 7 10 C7.72084166 16.87139976 7.64930469 23.039469 4 29 C1.23049081 32.17480321 -0.27616609 33.68046006 -4.40234375 34.4453125 C-10.0537555 34.70026341 -13.67842109 33.89996145 -18 30 C-22.07166373 24.38391209 -22.60098902 18.76669121 -22 12 C-20.6953027 5.80821619 -18.21585162 2.5127164 -13 -1 C-8.4549247 -2.58613852 -4.43109953 -1.60627358 0 0 Z M-9 1 C-12.71386773 4.47426336 -13.90876403 6.39108874 -14.203125 11.58203125 C-14.2243492 12.99211434 -14.23977185 14.40229428 -14.25 15.8125 C-14.270625 16.51181641 -14.29125 17.21113281 -14.3125 17.93164062 C-14.34837634 22.72561602 -13.47915885 25.9118921 -11 30 C-9.89203039 31.31120653 -9.89203039 31.31120653 -7.125 31.375 C-3.85096977 31.35113787 -3.85096977 31.35113787 -2.1875 28.75 C1.15208215 21.01623082 0.94363977 12.66627416 -1.93359375 4.78515625 C-2.99222442 2.64462704 -2.99222442 2.64462704 -6.1875 1.4375 C-7.5796875 1.2209375 -7.5796875 1.2209375 -9 1 Z " fill="#FBF7EF" transform="translate(397,19)"/>
<path d="M0 0 C4.12140273 3.15681911 5.96706775 5.92924168 7 11 C7.720905 18.23123165 7.29053727 23.98191968 3 30 C0.67959555 32.72988759 -0.80881763 33.82898867 -4.3671875 34.33984375 C-9.34363451 34.52443006 -13.07811309 34.34513884 -17 31 C-22.05270646 25.52623467 -22.30723677 20.98598106 -22.2109375 13.75390625 C-21.80330152 8.4319921 -20.09727341 4.72054491 -16.0625 1.125 C-10.51316869 -2.72555642 -6.21015909 -2.2400931 0 0 Z M-11 2.5625 C-15.14781543 7.61765006 -15.17010034 12.24303416 -14.875 18.5625 C-14.34590806 23.84125633 -13.90655411 27.30461097 -10 31 C-6.95625267 31.9168463 -6.95625267 31.9168463 -4 31 C0.32859783 25.21127706 0.3544417 18.35641068 -0.21484375 11.359375 C-0.91767752 7.31640742 -1.57720619 5.43336366 -4.5 2.4375 C-7.60762315 0.65061669 -8.16532775 0.34791231 -11 2.5625 Z " fill="#FBF8EF" transform="translate(58,19)"/>
<path d="M0 0 C1 1 1 1 1.09765625 3.06640625 C1.08605469 3.89011719 1.07445312 4.71382812 1.0625 5.5625 C1.05347656 6.38878906 1.04445313 7.21507812 1.03515625 8.06640625 C1.02355469 8.70449219 1.01195312 9.34257812 1 10 C-2 9 -2 9 -3.8125 6 C-5.73296994 2.70761758 -5.73296994 2.70761758 -9.25 2.125 C-10.61125 2.063125 -10.61125 2.063125 -12 2 C-11.81870185 5.43793339 -11.81870185 5.43793339 -11 9 C-9.18185222 10.11276912 -9.18185222 10.11276912 -7 11 C-5.60142442 11.92358764 -4.22622048 12.88341995 -2.875 13.875 C-2.19179688 14.36742188 -1.50859375 14.85984375 -0.8046875 15.3671875 C2.24682154 18.12807663 2.93210674 20.37764516 3.375 24.4375 C2.93878362 28.58155564 1.90869728 30.09130272 -1 33 C-3.55919182 34.27959591 -5.45484028 34.16816536 -8.3125 34.1875 C-9.72982422 34.20876953 -9.72982422 34.20876953 -11.17578125 34.23046875 C-14 34 -14 34 -19 32 C-19 28.37 -19 24.74 -19 21 C-18.01 21 -17.02 21 -16 21 C-15.566875 21.928125 -15.13375 22.85625 -14.6875 23.8125 C-12.86539751 27.39642005 -12.86539751 27.39642005 -10 30 C-7.41583753 30.33374277 -7.41583753 30.33374277 -5 30 C-3.78807235 28.96532839 -3.78807235 28.96532839 -3.5 26.8125 C-4.39213118 21.79426213 -9.0612394 19.43216893 -12.98828125 16.53125 C-16.3492844 13.9148169 -17.80616717 12.61380398 -19.125 8.4375 C-18.98318022 4.53745599 -18.58283534 2.91610441 -16 0 C-10.67580432 -2.98674392 -5.59256079 -1.63248008 0 0 Z " fill="#FBF7EF" transform="translate(272,19)"/>
<path d="M0 0 C0.04995979 4.37417135 0.08598048 8.74818533 0.10986328 13.12255859 C0.11983431 14.60631204 0.13341605 16.09004629 0.15087891 17.57373047 C0.37947755 37.51560001 0.37947755 37.51560001 -3.625 45.0625 C-7.15499363 47.94223165 -9.44259296 48 -14 48 C-16.5 46.9375 -16.5 46.9375 -18 45 C-18.25 41.8125 -18.25 41.8125 -18 39 C-16.68 38.34 -15.36 37.68 -14 37 C-10.6443794 39.2370804 -10.80721959 39.42517038 -10 43 C-9.34 43.33 -8.68 43.66 -8 44 C-7.92595263 39.05211686 -7.87144754 34.10455476 -7.83520508 29.15625 C-7.82009997 27.4722736 -7.79961454 25.78833665 -7.77368164 24.10449219 C-7.73737279 21.68675007 -7.72029153 19.26952708 -7.70703125 16.8515625 C-7.68380547 15.71867294 -7.68380547 15.71867294 -7.66011047 14.56289673 C-7.6243769 12.21591919 -7.6243769 12.21591919 -8 9 C-8.99 8.34 -9.98 7.68 -11 7 C-11 6.01 -11 5.02 -11 4 C-9.35546875 2.578125 -9.35546875 2.578125 -7.1875 1.25 C-6.47980469 0.80140625 -5.77210937 0.3528125 -5.04296875 -0.109375 C-3 -1 -3 -1 0 0 Z " fill="#FBF8EF" transform="translate(18,18)"/>
<path d="M0 0 C3 1 3 1 4 3 C4.70125 2.46375 5.4025 1.9275 6.125 1.375 C9 0 9 0 12.3125 0.8125 C13.199375 1.204375 14.08625 1.59625 15 2 C15.625 4.875 15.625 4.875 16 8 C15.34 8.66 14.68 9.32 14 10 C10.55834679 9.64700993 8.93127462 8.95418308 6 7 C5.01 7.495 5.01 7.495 4 8 C3.9132018 11.79152334 3.85967793 15.58279296 3.8125 19.375 C3.78736328 20.45523438 3.76222656 21.53546875 3.73632812 22.6484375 C3.72666016 23.6796875 3.71699219 24.7109375 3.70703125 25.7734375 C3.6913208 26.72653809 3.67561035 27.67963867 3.65942383 28.66162109 C3.77181396 29.43328613 3.8842041 30.20495117 4 31 C4.99 31.66 5.98 32.32 7 33 C7 33.66 7 34.32 7 35 C2.05 35 -2.9 35 -8 35 C-7.67 34.01 -7.34 33.02 -7 32 C-6.34 31.67 -5.68 31.34 -5 31 C-4.91318524 27.37515001 -4.85967279 23.75056557 -4.8125 20.125 C-4.78736328 19.09246094 -4.76222656 18.05992188 -4.73632812 16.99609375 C-4.72666016 16.00996094 -4.71699219 15.02382813 -4.70703125 14.0078125 C-4.6913208 13.09660645 -4.67561035 12.18540039 -4.65942383 11.24658203 C-4.82800903 10.13452393 -4.82800903 10.13452393 -5 9 C-5.99 8.34 -6.98 7.68 -8 7 C-7 4 -7 4 -4 2.375 C-3.01 1.92125 -2.02 1.4675 -1 1 C-0.67 0.67 -0.34 0.34 0 0 Z " fill="#FBF8EF" transform="translate(102,17)"/>
<path d="M0 0 C0.66 0 1.32 0 2 0 C2 2.64 2 5.28 2 8 C5.465 7.505 5.465 7.505 9 7 C9.33 8.32 9.66 9.64 10 11 C7.36 11 4.72 11 2 11 C2.1387881 14.60447434 2.28723935 18.20848712 2.4375 21.8125 C2.47681641 22.83666016 2.51613281 23.86082031 2.55664062 24.91601562 C2.61948242 26.39038086 2.61948242 26.39038086 2.68359375 27.89453125 C2.72025146 28.80050049 2.75690918 29.70646973 2.79467773 30.63989258 C2.9208205 33.15048782 2.9208205 33.15048782 4 36 C5.98 36 7.96 36 10 36 C9.42655063 38.86724686 9.1385485 39.8614515 7 42 C4.06941372 42.27910345 1.84451727 42.47797216 -1 42 C-3.62179292 39.63192898 -4.31843376 37.38626028 -5 34 C-5.07952806 32.26714352 -5.10774143 30.53152614 -5.09765625 28.796875 C-5.09443359 27.8171875 -5.09121094 26.8375 -5.08789062 25.828125 C-5.07951172 24.81234375 -5.07113281 23.7965625 -5.0625 22.75 C-5.05798828 21.71875 -5.05347656 20.6875 -5.04882812 19.625 C-5.03706088 17.08327427 -5.02062011 14.54166681 -5 12 C-5.99 12 -6.98 12 -8 12 C-7.52584717 7.73262454 -5.00349628 5.85698427 -2 3 C-1.34 2.01 -0.68 1.02 0 0 Z " fill="#FBF8EF" transform="translate(284,11)"/>
<path d="M0 0 C0.66 0.33 1.32 0.66 2 1 C2.01458252 1.89831543 2.02916504 2.79663086 2.04418945 3.72216797 C2.10519697 7.0510659 2.17933628 10.37912883 2.26245117 13.70751953 C2.29573178 15.14881342 2.32375404 16.59023863 2.34643555 18.03173828 C2.3799262 20.10245797 2.432233 22.17197093 2.48828125 24.2421875 C2.51446533 25.4885498 2.54064941 26.73491211 2.56762695 28.01904297 C2.71031006 29.00275879 2.85299316 29.98647461 3 31 C3.99 31.66 4.98 32.32 6 33 C6 33.66 6 34.32 6 35 C1.05 35 -3.9 35 -9 35 C-8.67 34.01 -8.34 33.02 -8 32 C-7.34 31.67 -6.68 31.34 -6 31 C-6 23.74 -6 16.48 -6 9 C-6.66 8.67 -7.32 8.34 -8 8 C-8 7.01 -8 6.02 -8 5 C-6.3203125 3.578125 -6.3203125 3.578125 -4.125 2.25 C-3.40570312 1.80140625 -2.68640625 1.3528125 -1.9453125 0.890625 C-1.30335937 0.59671875 -0.66140625 0.3028125 0 0 Z " fill="#FBF8EF" transform="translate(30,17)"/>
<path d="M0 0 C0.66 0.33 1.32 0.66 2 1 C2.33 11.23 2.66 21.46 3 32 C3.99 32.33 4.98 32.66 6 33 C6 33.66 6 34.32 6 35 C1.38 35 -3.24 35 -8 35 C-8 34.01 -8 33.02 -8 32 C-7.34 31.67 -6.68 31.34 -6 31 C-6 23.74 -6 16.48 -6 9 C-6.66 8.67 -7.32 8.34 -8 8 C-8 7.01 -8 6.02 -8 5 C-6.3203125 3.578125 -6.3203125 3.578125 -4.125 2.25 C-3.40570313 1.80140625 -2.68640625 1.3528125 -1.9453125 0.890625 C-1.30335938 0.59671875 -0.66140625 0.3028125 0 0 Z " fill="#FBF7EF" transform="translate(369,17)"/>
<path d="M0 0 C4.55555556 1.55555556 4.55555556 1.55555556 6 3 C5.71269945 5.33944736 5.38063221 7.6739143 5 10 C0.5856833 11.31236443 0.5856833 11.31236443 -1.875 10 C-3.65049945 6.84355654 -2.82068609 4.40900375 -2 1 C-1.34 0.67 -0.68 0.34 0 0 Z " fill="#FBF8EF" transform="translate(366,3)"/>
<path d="M0 0 C2.4375 0.6875 2.4375 0.6875 5 2 C6 4.375 6 4.375 6 7 C4.5625 9.3125 4.5625 9.3125 3 11 C-1.875 10.125 -1.875 10.125 -3 9 C-3.47058824 3.58823529 -3.47058824 3.58823529 -1.5 1.125 C-1.005 0.75375 -0.51 0.3825 0 0 Z " fill="#FBF8EF" transform="translate(27,3)"/>
<path d="M0 0 C2.5625 0.1875 2.5625 0.1875 4.5625 2.1875 C4.1875 5.3125 4.1875 5.3125 3.5625 8.1875 C1.1875 8.8125 1.1875 8.8125 -1.4375 9.1875 C-3.4375 7.1875 -3.4375 7.1875 -3.625 4.125 C-3.37828947 0.25986842 -3.37828947 0.25986842 0 0 Z " fill="#FBF8EF" transform="translate(13.4375,3.8125)"/>
</svg>
